<?xml version="1.0" encoding="utf-8"?>
<!-- Generator: Adobe Illustrator 21.0.0, SVG Export Plug-In . SVG Version: 6.00 Build 0)  -->
<svg version="1.1" id="Layer_1" xmlns="http://www.w3.org/2000/svg" xmlns:xlink="http://www.w3.org/1999/xlink" x="0px" y="0px"
	 width="16px" height="16px" viewBox="0 0 16 16" style="enable-background:new 0 0 16 16;" xml:space="preserve">
<style type="text/css">
	.st0{fill:#231F20;}
</style>
<g>
	<g>
		<path class="st0" d="M14.1,6.8c0-0.1-0.1-0.3-0.3-0.3l-0.6-0.2c0.6-0.7,0.6-1.6,0.6-1.7l0-0.1l-1.9-0.4l-0.2,0.2
			c-0.4,0.4-0.7,0.9-0.8,1.5l-0.5-0.1C11,4.9,10.9,4.1,10.9,4l0-0.1L9,3.5L8.8,3.7C8.5,4,8.2,4.5,8.1,5C8,5,7.8,5,7.7,5
			C7.4,5,7.2,5,6.9,5.1L0.2,8C0.1,8.1,0,8.2,0,8.3c0,0,0,0,0,0h0v2c0,0.2,0.1,0.4,0.3,0.6v1.2h0.4v-1l0.3,0.1v1.3h0.4v-1.1l0.1,0
			v-0.9l3.5,1.3v0.5c0,0.3,0.2,0.5,0.4,0.6l0.5,0.2v1.2h0.4v-1l0.3,0.1v1.3h0.4v-1.3l0.3-0.1v1h0.4v-1.2L8,13l0,0
			c0.3-0.1,0.4-0.4,0.4-0.6v-0.4l4.3-2.4v0.9l0.2-0.1v1.1h0.4v-1.3l0.3-0.2v1.1h0.4V9.8c0.1-0.1,0.2-0.3,0.2-0.5V6.9h0
			C14.1,6.9,14.1,6.9,14.1,6.8z M4.9,11.5l-3.5-1.3V9.7L4.9,11V11.5z M12.7,9.2l-4.3,2.4v-0.4l4.3-2.3V9.2z M13.8,9.3
			c0,0.1-0.1,0.3-0.2,0.3l-0.5,0.3V8.2l-5,2.7v1.4c0,0.1-0.1,0.3-0.2,0.3l-0.4,0.1v0l-0.3,0.1l-0.3,0.1v-1.2H6.5v1.2l-1-0.5
			c-0.1-0.1-0.2-0.2-0.2-0.3v-1.5L1.1,9.2v1.7l-0.5-0.2c-0.1-0.1-0.2-0.2-0.2-0.3V8.7L6,10.6c0.2,0.1,0.4,0.1,0.6,0.1c0,0,0,0,0,0
			c0.3,0,0.6-0.1,0.9-0.2l6.4-3.3V9.3z M7.9,1.7l-0.3,3l0.4,0l0.2-2.6l6.6,1.5l-0.3,2.9v2.8h0.4V6.5l0.3-3.2L7.9,1.7z M9,1.3
			L8.5,1.4l0.1,0.3L9,1.6l6.6,1.5l-0.3,3.2v2.3l-0.3,0.2l0.2,0.3l0.4-0.3V6.3L16,2.9L9,1.3z"/>
	</g>
</g>
</svg>
