<?xml version="1.0" encoding="utf-8"?>
<!-- Generator: Adobe Illustrator 21.0.0, SVG Export Plug-In . SVG Version: 6.00 Build 0)  -->
<svg version="1.1" id="Layer_1" xmlns="http://www.w3.org/2000/svg" xmlns:xlink="http://www.w3.org/1999/xlink" x="0px" y="0px"
	 width="16px" height="16px" viewBox="0 0 16 16" style="enable-background:new 0 0 16 16;" xml:space="preserve">
<style type="text/css">
	.st0{fill:#231F20;}
</style>
<g>
	<g>
		<path class="st0" d="M2,5.2c0-0.3-0.4-0.6-1-0.6c-0.5,0-1,0.3-1,0.6s0.4,0.6,1,0.6C1.5,5.9,2,5.6,2,5.2z M15,4.6
			c-0.5,0-1,0.3-1,0.6s0.4,0.6,1,0.6c0.5,0,1-0.3,1-0.6S15.6,4.6,15,4.6z M14.2,6.4l-2-3.6C10.9,2.3,8,2.4,8,2.4S5.1,2.3,3.8,2.8
			l-2,3.6c0,0-1.3,0.1-1.3,1v6.2h2.3v-0.8h10.4v0.8h2.3V7.4C15.6,6.5,14.2,6.4,14.2,6.4z M4.3,3.2h7.3L13,5.8c0,0-0.7,0.5-5,0.5
			c-4.2,0-5-0.5-5-0.5L4.3,3.2z M10.4,9v0.5H5.6V9H10.4z M4,8.7c0,0.4-0.4,0.8-0.8,0.8H2.9c-0.4,0-0.8-0.4-0.8-0.8V8
			c0-0.4,0.4-0.8,0.8-0.8h0.3C3.6,7.2,4,7.5,4,8V8.7z M11.7,11.5H4.3v-0.8h7.4V11.5z M13.9,8.7c0,0.4-0.4,0.8-0.8,0.8h-0.3
			c-0.4,0-0.8-0.4-0.8-0.8V8c0-0.4,0.4-0.8,0.8-0.8h0.3c0.4,0,0.8,0.4,0.8,0.8V8.7z"/>
	</g>
</g>
</svg>
