<?xml version="1.0" encoding="utf-8"?>
<!-- Generator: Adobe Illustrator 21.0.0, SVG Export Plug-In . SVG Version: 6.00 Build 0)  -->
<svg version="1.1" id="Layer_1" xmlns="http://www.w3.org/2000/svg" xmlns:xlink="http://www.w3.org/1999/xlink" x="0px" y="0px"
	 width="16px" height="16px" viewBox="0 0 16 16" style="enable-background:new 0 0 16 16;" xml:space="preserve">
<g>
	<g>
		<path d="M1.2,1.2h3.1V0H0v4.3h1.2V1.2z M11.7,0v1.2h3.1v3.1H16V0H11.7z M1.2,11.7H0V16h4.3v-1.2H1.2V11.7z M14.8,14.8h-3.1V16H16
			v-4.3h-1.2V14.8z M7.4,11.7h1.2V4.3H7.4V11.7z M3.7,11.7V4.3H2.5v7.4H3.7z M6.2,11.7h0.6V4.3H6.2V11.7z M9.2,11.7h0.6V4.3H9.2
			V11.7z M12.3,4.3v7.4h1.2V4.3H12.3z M4.3,11.7h0.6V4.3H4.3V11.7z M11.7,4.3h-0.6v7.4h0.6V4.3z"/>
	</g>
</g>
</svg>
