<?xml version="1.0" encoding="utf-8"?>
<!-- Generator: Adobe Illustrator 21.0.0, SVG Export Plug-In . SVG Version: 6.00 Build 0)  -->
<svg version="1.1" id="Layer_1" xmlns="http://www.w3.org/2000/svg" xmlns:xlink="http://www.w3.org/1999/xlink" x="0px" y="0px"
	 width="16px" height="16px" viewBox="0 0 16 16" style="enable-background:new 0 0 16 16;" xml:space="preserve">
<g>
	<g>
		<path d="M1.2,1.2h3.1V0H1.2H0v1.2v3.1h1.2V1.2z M14.8,0h-3.1v1.2h3.1v3.1H16V1.2V0H14.8z M1.2,11.7H0v3.1V16h1.2h3.1v-1.2H1.2
			V11.7z M14.8,14.8h-3.1V16h3.1H16v-1.2v-3.1h-1.2V14.8z M4.6,8.4v4c0,0.1,0.1,0.2,0.2,0.3C4.8,12.9,5,12.9,5,12.9h1.8
			c0.1,0,0.1,0,0.2-0.1c0.1-0.1,0.1-0.1,0.1-0.2v-1.9h1.8v1.9c0,0.1,0,0.1,0.1,0.2c0.1,0.1,0.1,0.1,0.2,0.1h1.8c0.1,0,0.2,0,0.2-0.1
			c0.1-0.1,0.2-0.1,0.2-0.3v-4L8,5.3L4.6,8.4z M3.2,8.2c0.2,0.1,0.4,0.2,0.5,0.2c0.1,0,0.3-0.1,0.4-0.2L8,4.7l3.9,3.5
			c0.2,0.2,0.7,0.2,0.9-0.1c0.2-0.2,0.2-0.6-0.1-0.9l-1.6-1.5V3.6c0-0.1-0.1-0.2-0.2-0.2h-0.6c-0.1,0-0.2,0.1-0.2,0.2v1.2L8.4,3.3
			c-0.2-0.2-0.6-0.2-0.9,0l-4.4,4C3,7.6,2.9,7.9,3.2,8.2z"/>
	</g>
</g>
</svg>
