<?xml version="1.0" encoding="utf-8"?>
<!-- Generator: Adobe Illustrator 21.0.0, SVG Export Plug-In . SVG Version: 6.00 Build 0)  -->
<svg version="1.1" id="Layer_1" xmlns="http://www.w3.org/2000/svg" xmlns:xlink="http://www.w3.org/1999/xlink" x="0px" y="0px"
	 width="16px" height="16px" viewBox="0 0 16 16" style="enable-background:new 0 0 16 16;" xml:space="preserve">
<g>
	<g>
		<path d="M2.5,8.7v6.5c0,0.2,0.2,0.4,0.3,0.5c0.1,0.1,0.3,0.1,0.4,0.1l2.9,0c0.1,0,0.2,0,0.3-0.1c0.1-0.1,0.1-0.2,0.1-0.3v-3.1
			l2.9,0v3.1c0,0.1,0,0.2,0.1,0.3c0.1,0.1,0.2,0.1,0.3,0.1h2.9c0.2,0,0.3,0,0.4-0.1c0.1-0.1,0.3-0.2,0.3-0.5V8.7L8,3.6L2.5,8.7z
			 M15.7,6.9l-2.6-2.4V0.9c0-0.2-0.2-0.4-0.4-0.4h-1c-0.2,0-0.4,0.2-0.4,0.4v2L8.7,0.5c-0.4-0.4-1-0.4-1.4,0l-7,6.4
			c-0.4,0.4-0.5,1-0.1,1.5v0C0.5,8.6,0.8,8.7,1,8.7c0.2,0,0.5-0.1,0.7-0.3L8,2.7l6.3,5.7c0.4,0.4,1.1,0.4,1.5-0.1
			C16.1,7.9,16.1,7.3,15.7,6.9z"/>
	</g>
</g>
</svg>
