<?xml version="1.0" encoding="utf-8"?>
<!-- Generator: Adobe Illustrator 21.0.0, SVG Export Plug-In . SVG Version: 6.00 Build 0)  -->
<svg version="1.1" id="Layer_1" xmlns="http://www.w3.org/2000/svg" xmlns:xlink="http://www.w3.org/1999/xlink" x="0px" y="0px"
	 width="16px" height="16px" viewBox="0 0 16 16" style="enable-background:new 0 0 16 16;" xml:space="preserve">
<style type="text/css">
	.st0{fill-rule:evenodd;clip-rule:evenodd;}
</style>
<g>
	<g>
		<path class="st0" d="M13.7,2.3C12.2,0.9,10.2,0,8,0C5.8,0,3.8,0.9,2.3,2.3C0.9,3.8,0,5.8,0,8c0,2.2,0.9,4.2,2.3,5.7
			C3.8,15.1,5.8,16,8,16c2.2,0,4.2-0.9,5.7-2.3C15.1,12.2,16,10.2,16,8C16,5.8,15.1,3.8,13.7,2.3z M13.3,13.3
			c-1.3,1.3-3.2,2.2-5.3,2.2c-2.1,0-3.9-0.8-5.3-2.2C1.4,11.9,0.5,10.1,0.5,8c0-2.1,0.8-3.9,2.2-5.3C4.1,1.4,5.9,0.5,8,0.5
			c2.1,0,3.9,0.8,5.3,2.2c1.4,1.3,2.2,3.2,2.2,5.3C15.5,10.1,14.6,11.9,13.3,13.3z M8.3,12.5c-0.1,0-0.2-0.1-0.2-0.2
			c0-1.2,2-4.2,2-6.1c0-0.7-0.4-0.9-1-0.9c-2,0-3.1,1.4-3.7,3c0.9-1.2,1.6-1.7,1.9-1.6c0.1,0,0.2,0.1,0.2,0.2c0,1.2-2,4.2-2,6.1
			c0,0.7,0.4,0.9,1,0.9c2,0,3.1-1.4,3.7-3C9.3,12,8.6,12.6,8.3,12.5z M9.4,2.1C8.6,2.1,8,2.7,8,3.5c0,0.7,0.6,1.4,1.4,1.4
			c0.7,0,1.4-0.6,1.4-1.4C10.7,2.7,10.1,2.1,9.4,2.1z"/>
	</g>
</g>
</svg>
