<?xml version="1.0" encoding="utf-8"?>
<!-- Generator: Adobe Illustrator 21.0.0, SVG Export Plug-In . SVG Version: 6.00 Build 0)  -->
<svg version="1.1" id="Layer_1" xmlns="http://www.w3.org/2000/svg" xmlns:xlink="http://www.w3.org/1999/xlink" x="0px" y="0px"
	 width="16px" height="16px" viewBox="0 0 16 16" style="enable-background:new 0 0 16 16;" xml:space="preserve">
<style type="text/css">
	.st0{fill-rule:evenodd;clip-rule:evenodd;fill:#231F20;}
</style>
<path class="st0" d="M8,0L8,0C5,0,3,2.2,3,4.7c0,2,1.8,4,2.9,5.8c0.7,1.1,1.4,2.2,1.8,5.2C7.7,15.9,7.8,16,8,16h0
	c0.2,0,0.3-0.1,0.3-0.3c0.4-2.9,1.2-4.1,1.8-5.2C11.2,8.8,13,6.7,13,4.7C13,2.2,11,0,8,0z M9.2,6C8.5,6.7,7.5,6.7,6.8,6
	c-0.7-0.7-0.7-1.8,0-2.4c0.7-0.7,1.8-0.7,2.4,0C9.9,4.3,9.9,5.4,9.2,6z"/>
</svg>
