<?xml version="1.0" encoding="utf-8"?>
<!-- Generator: Adobe Illustrator 21.0.0, SVG Export Plug-In . SVG Version: 6.00 Build 0)  -->
<svg version="1.1" id="Layer_1" xmlns="http://www.w3.org/2000/svg" xmlns:xlink="http://www.w3.org/1999/xlink" x="0px" y="0px"
	 width="16px" height="16px" viewBox="0 0 16 16" style="enable-background:new 0 0 16 16;" xml:space="preserve">
<g>
	<g>
		<path d="M13.3,6.1C13.2,6,13.1,5.9,13,5.9c-0.1,0-0.2,0-0.3,0.1l-0.1,0.1c-0.1,0.1-0.2,0.4,0,0.5C13,7,13.1,7.6,13.1,8.1
			c0,0.5-0.2,1-0.5,1.4c-0.1,0.2-0.1,0.4,0,0.5l0.1,0.1c0.1,0.1,0.2,0.1,0.3,0.1c0,0,0,0,0,0c0.1,0,0.2-0.1,0.3-0.2
			C13.8,9.5,14,8.8,14,8.1C14,7.4,13.8,6.6,13.3,6.1z M14.7,4.7c-0.1-0.1-0.2-0.1-0.3-0.1c-0.1,0-0.2,0-0.3,0.1L14,4.7
			c-0.2,0.2-0.2,0.4,0,0.6c0.7,0.8,1.1,1.8,1.1,2.9c0,1-0.4,2-1,2.8c-0.1,0.2-0.1,0.4,0,0.5l0.1,0.1c0.1,0.1,0.2,0.1,0.3,0.1
			c0,0,0,0,0,0c0.1,0,0.2-0.1,0.3-0.1c0.8-0.9,1.2-2.1,1.2-3.4C16,6.8,15.5,5.6,14.7,4.7z M10.7,2.4c-0.2,0-0.3,0.1-0.4,0.3
			C9.5,3.1,7.7,4.1,6.4,4.6c-2.5,1-4.7,1.2-4.7,1.2v3.6c0,0,0.7,0.1,1.9,0.3l0,3.4c0,0.3,0.2,0.5,0.5,0.5l0.8,0
			c0.3,0,0.5-0.2,0.5-0.5l0-2.9c0.3,0.1,0.7,0.2,1.1,0.4c1.3,0.5,3.1,1.4,3.9,1.8c0.1,0.2,0.2,0.3,0.4,0.3c0.2,0,0.4-0.2,0.4-0.5
			V2.9C11.2,2.7,11,2.4,10.7,2.4z M0,9.3h1.3V5.8H0V9.3z"/>
	</g>
</g>
</svg>
