<?xml version="1.0" encoding="utf-8"?>
<!-- Generator: Adobe Illustrator 21.0.0, SVG Export Plug-In . SVG Version: 6.00 Build 0)  -->
<svg version="1.1" id="Layer_1" xmlns="http://www.w3.org/2000/svg" xmlns:xlink="http://www.w3.org/1999/xlink" x="0px" y="0px"
	 width="16px" height="16px" viewBox="0 0 16 16" style="enable-background:new 0 0 16 16;" xml:space="preserve">
<style type="text/css">
	.st0{fill:#231F20;}
</style>
<path id="XMLID_879_" class="st0" d="M15.7,6.4c0.2,0,0.3-0.1,0.3-0.3c0-0.2-0.1-0.3-0.3-0.3h-1.8V2.7h1.8c0.2,0,0.3-0.1,0.3-0.3
	c0-0.2-0.1-0.3-0.3-0.3h-1.8V0.3c0-0.2-0.1-0.3-0.3-0.3c-0.2,0-0.3,0.1-0.3,0.3v1.8h-3.2V0.3C10.1,0.1,10,0,9.9,0S9.6,0.1,9.6,0.3
	v1.8H6.4V0.3C6.4,0.1,6.3,0,6.1,0C6,0,5.9,0.1,5.9,0.3v1.8H2.7V0.3C2.7,0.1,2.6,0,2.4,0C2.3,0,2.1,0.1,2.1,0.3v1.8H0.3
	C0.1,2.1,0,2.3,0,2.4c0,0.2,0.1,0.3,0.3,0.3h1.8v3.2H0.3C0.1,5.9,0,6,0,6.1c0,0.2,0.1,0.3,0.3,0.3h1.8v3.2H0.3C0.1,9.6,0,9.7,0,9.9
	s0.1,0.3,0.3,0.3h1.8v3.2H0.3c-0.2,0-0.3,0.1-0.3,0.3c0,0.2,0.1,0.3,0.3,0.3h1.8v1.8c0,0.2,0.1,0.3,0.3,0.3c0.2,0,0.3-0.1,0.3-0.3
	v-1.8h3.2v1.8C5.9,15.9,6,16,6.1,16c0.2,0,0.3-0.1,0.3-0.3v-1.8h3.2v1.8c0,0.2,0.1,0.3,0.3,0.3s0.3-0.1,0.3-0.3v-1.8h3.2v1.8
	c0,0.2,0.1,0.3,0.3,0.3c0.2,0,0.3-0.1,0.3-0.3v-1.8h1.8c0.2,0,0.3-0.1,0.3-0.3c0-0.2-0.1-0.3-0.3-0.3h-1.8v-3.2h1.8
	c0.2,0,0.3-0.1,0.3-0.3s-0.1-0.3-0.3-0.3h-1.8V6.4H15.7z M13.3,2.7v3.2h-3.2V2.7H13.3z M9.6,2.7v3.2H6.4V2.7H9.6z M9.6,6.4v3.2H6.4
	V6.4H9.6z M2.7,2.7h3.2v3.2H2.7V2.7z M2.7,6.4h3.2v3.2H2.7V6.4z M2.7,13.3v-3.2h3.2v3.2H2.7z M6.4,13.3v-3.2h3.2v3.2H6.4z
	 M13.3,13.3h-3.2v-3.2h3.2V13.3z M13.3,9.6h-3.2V6.4h3.2V9.6z"/>
</svg>
