<?xml version="1.0" encoding="utf-8"?>
<!-- Generator: Adobe Illustrator 21.0.0, SVG Export Plug-In . SVG Version: 6.00 Build 0)  -->
<svg version="1.1" id="Layer_1" xmlns="http://www.w3.org/2000/svg" xmlns:xlink="http://www.w3.org/1999/xlink" x="0px" y="0px"
	 width="16px" height="16px" viewBox="0 0 16 16" style="enable-background:new 0 0 16 16;" xml:space="preserve">
<style type="text/css">
	.st0{fill:#231F20;}
</style>
<g>
	<g>
		<path class="st0" d="M12.2,3.3c-0.1-0.1-0.4-0.1-0.5,0c-0.1,0.1-0.1,0.4,0,0.5c2,2,2,5.2,0,7.2c-0.1,0.1-0.1,0.4,0,0.5
			c0.1,0.1,0.4,0.1,0.5,0C14.4,9.2,14.4,5.5,12.2,3.3z M9.8,9.6c0.1,0.1,0.4,0.1,0.5,0c1.2-1.2,1.2-3.3,0-4.5C10.2,5,9.9,5,9.8,5.1
			c-0.1,0.1-0.1,0.4,0,0.5c1,1,1,2.5,0,3.4C9.6,9.3,9.6,9.5,9.8,9.6z M11.2,10.6C13,8.8,13,6,11.2,4.2c-0.1-0.1-0.4-0.1-0.5,0
			c-0.1,0.1-0.1,0.4,0,0.5c1.5,1.5,1.5,3.9,0,5.3c-0.1,0.1-0.1,0.4,0,0.5C10.9,10.7,11.1,10.7,11.2,10.6z M11,12.7
			c0,0.4-0.3,0.7-0.7,0.7H3.6c-0.4,0-0.7-0.3-0.7-0.7V1.5c0-0.4,0.3-0.7,0.7-0.7h6.7c0.4,0,0.7,0.3,0.7,0.7v1.6l0.7-0.7V1.5
			c0-0.8-0.7-1.5-1.5-1.5H3.6C2.8,0,2.1,0.7,2.1,1.5v13c0,0.8,0.7,1.5,1.5,1.5h6.7c0.8,0,1.5-0.7,1.5-1.5v-2.4L11,11.6V12.7z
			 M7.8,15.3H6.1c-0.3,0-0.5-0.2-0.5-0.5c0-0.3,0.2-0.5,0.5-0.5h1.6c0.3,0,0.5,0.2,0.5,0.5C8.2,15.1,8,15.3,7.8,15.3z"/>
	</g>
</g>
</svg>
