<?xml version="1.0" encoding="utf-8"?>
<!-- Generator: Adobe Illustrator 21.0.0, SVG Export Plug-In . SVG Version: 6.00 Build 0)  -->
<svg version="1.1" id="Layer_1" xmlns="http://www.w3.org/2000/svg" xmlns:xlink="http://www.w3.org/1999/xlink" x="0px" y="0px"
	 width="16px" height="16px" viewBox="0 0 16 16" style="enable-background:new 0 0 16 16;" xml:space="preserve">
<style type="text/css">
	.st0{fill:#231F20;}
</style>
<g>
	<g>
		<path class="st0" d="M8,0C3.6,0,0,3.6,0,8c0,4.4,3.6,8,8,8c4.4,0,8-3.6,8-8C16,3.6,12.4,0,8,0z M10.5,10.5
			c-0.1,0.3-0.3,0.5-0.5,0.7c-0.2,0.2-0.5,0.4-0.8,0.5c-0.3,0.1-0.6,0.2-1,0.2v0.6c0,0.1,0,0.2-0.1,0.2c-0.1,0.1-0.1,0.1-0.2,0.1
			c-0.1,0-0.2,0-0.2-0.1c-0.1-0.1-0.1-0.1-0.1-0.2v-0.6c-0.3,0-0.5,0-0.8-0.1c-0.3,0-0.5-0.1-0.8-0.2c-0.2-0.1-0.4-0.2-0.6-0.3
			c-0.2-0.1-0.2-0.3-0.2-0.5c0-0.1,0-0.2,0-0.2c0-0.1,0.1-0.2,0.1-0.2c0.1-0.1,0.2-0.1,0.3-0.2C5.8,10.1,6,10,6.1,10
			c0.1,0,0.2,0,0.4,0.1l0.4,0.1l0.4,0.1c0.1,0,0.3,0.1,0.5,0.1V8.7L6.8,8.4C6.6,8.2,6.3,8.1,6.1,7.9C5.8,7.8,5.7,7.6,5.5,7.3
			c-0.1-0.3-0.2-0.6-0.2-1c0-0.7,0.2-1.2,0.6-1.6c0.4-0.4,1-0.6,1.8-0.6V3.5c0-0.1,0-0.2,0.1-0.2C7.9,3.2,7.9,3.2,8,3.2
			c0.1,0,0.2,0,0.2,0.1c0.1,0.1,0.1,0.1,0.1,0.2v0.6L9,4.2c0.2,0,0.5,0.1,0.7,0.2c0.2,0.1,0.4,0.2,0.5,0.3c0.1,0.1,0.2,0.3,0.2,0.5
			c0,0.2-0.1,0.4-0.2,0.5C10,5.8,9.8,5.9,9.6,5.9c-0.1,0-0.2,0-0.3,0L9,5.8L8.7,5.7L8.3,5.6v1.6l0.9,0.3C9.5,7.7,9.8,7.8,10,8
			c0.2,0.2,0.4,0.4,0.5,0.6c0.1,0.2,0.2,0.6,0.2,0.9C10.7,9.9,10.7,10.2,10.5,10.5z M7,6.3c0,0.2,0,0.4,0.2,0.4
			c0.1,0.1,0.2,0.2,0.3,0.2L7.7,7V5.6c-0.2,0-0.4,0.1-0.5,0.2C7,5.9,7,6.1,7,6.3z M8.6,8.9L8.3,8.9v1.5c0.2,0,0.4-0.1,0.5-0.3
			C9,10,9,9.8,9,9.6C9,9.4,9,9.2,8.9,9.2C8.8,9.1,8.7,9,8.6,8.9z"/>
	</g>
</g>
</svg>
