<?xml version="1.0" encoding="utf-8"?>
<!-- Generator: Adobe Illustrator 21.0.0, SVG Export Plug-In . SVG Version: 6.00 Build 0)  -->
<svg version="1.1" id="Layer_1" xmlns="http://www.w3.org/2000/svg" xmlns:xlink="http://www.w3.org/1999/xlink" x="0px" y="0px"
	 width="16px" height="16px" viewBox="0 0 16 16" style="enable-background:new 0 0 16 16;" xml:space="preserve">
<path d="M14.4,6.4H9.6V1.6C9.6,0.6,8.8,0,8,0S6.4,0.6,6.4,1.6v5H1.6C0.6,6.4,0,7.2,0,8c0,0.8,0.6,1.6,1.6,1.6h5v5
	C6.4,15.4,7.2,16,8,16c0.8,0,1.6-0.6,1.6-1.6V9.6h5C15.4,9.6,16,8.8,16,8C16,7.2,15.4,6.4,14.4,6.4z"/>
</svg>
