<?xml version="1.0" encoding="utf-8"?>
<!-- Generator: Adobe Illustrator 21.0.0, SVG Export Plug-In . SVG Version: 6.00 Build 0)  -->
<svg version="1.1" id="Layer_1" xmlns="http://www.w3.org/2000/svg" xmlns:xlink="http://www.w3.org/1999/xlink" x="0px" y="0px"
	 width="16px" height="16px" viewBox="0 0 16 16" style="enable-background:new 0 0 16 16;" xml:space="preserve">
<g>
	<g>
		<path d="M8,0C3.6,0,0,3.6,0,8s3.6,8,8,8s8-3.6,8-8S12.4,0,8,0z M8,14.5c-3.6,0-6.5-2.9-6.5-6.5S4.4,1.5,8,1.5s6.5,2.9,6.5,6.5
			S11.6,14.5,8,14.5z M11.2,7.2H8.8V4.8C8.8,4.3,8.4,4,8,4S7.2,4.3,7.2,4.8v2.5H4.8C4.3,7.2,4,7.6,4,8c0,0.4,0.3,0.8,0.8,0.8h2.5
			v2.5C7.2,11.7,7.6,12,8,12s0.8-0.3,0.8-0.8V8.8h2.5C11.7,8.8,12,8.4,12,8C12,7.6,11.7,7.2,11.2,7.2z"/>
	</g>
</g>
</svg>
