<?xml version="1.0" encoding="utf-8"?>
<!-- Generator: Adobe Illustrator 21.0.0, SVG Export Plug-In . SVG Version: 6.00 Build 0)  -->
<svg version="1.1" id="Layer_1" xmlns="http://www.w3.org/2000/svg" xmlns:xlink="http://www.w3.org/1999/xlink" x="0px" y="0px"
	 width="16px" height="16px" viewBox="0 0 16 16" style="enable-background:new 0 0 16 16;" xml:space="preserve">
<g>
	<g>
		<path d="M13.3,2.9c0-0.7-0.6-1.3-1.3-1.3h-1.4V1.2C10.6,0.5,10,0,9.4,0H6.6C6,0,5.4,0.5,5.4,1.2v0.4H4c-0.7,0-1.3,0.6-1.3,1.3v0.7
			h10.5V2.9z M9.8,1.6H6.2V1.2c0-0.2,0.2-0.4,0.4-0.4h2.8c0.2,0,0.4,0.2,0.4,0.4V1.6z M2,5.1v2.1h0.8V16h10.5V7.2H14V5.1H2z
			 M5.8,14.7H4.5V7.3h1.3V14.7z M8.7,14.7H7.3V7.3h1.3V14.7z M11.5,14.7h-1.3V7.3h1.3V14.7z"/>
	</g>
</g>
</svg>
