<?xml version="1.0" encoding="utf-8"?>
<!-- Generator: Adobe Illustrator 21.0.0, SVG Export Plug-In . SVG Version: 6.00 Build 0)  -->
<svg version="1.1" id="Layer_1" xmlns="http://www.w3.org/2000/svg" xmlns:xlink="http://www.w3.org/1999/xlink" x="0px" y="0px"
	 width="16px" height="16px" viewBox="0 0 16 16" style="enable-background:new 0 0 16 16;" xml:space="preserve">
<path d="M15.7,13.8c1.1,1.1-0.8,2.7-1.7,1.7c-0.9-0.9-2.7-2.7-3.8-3.8c-2.5,1.8-6,1.6-8.2-0.7c-2.5-2.5-2.5-6.5,0-9
	c2.5-2.5,6.5-2.5,9,0c2.2,2.2,2.4,5.5,0.9,7.9C12.8,11,14.5,12.7,15.7,13.8z M9.6,9.7c1.8-1.8,1.8-4.6,0-6.4C7.8,1.6,5,1.6,3.2,3.4
	C1.4,5.1,1.4,8,3.2,9.7C5,11.5,7.8,11.5,9.6,9.7z"/>
</svg>
