<?xml version="1.0" encoding="utf-8"?>
<!-- Generator: Adobe Illustrator 21.0.0, SVG Export Plug-In . SVG Version: 6.00 Build 0)  -->
<svg version="1.1" id="Layer_1" xmlns="http://www.w3.org/2000/svg" xmlns:xlink="http://www.w3.org/1999/xlink" x="0px" y="0px"
	 width="16px" height="16px" viewBox="0 0 16 16" style="enable-background:new 0 0 16 16;" xml:space="preserve">
<g>
	<g>
		<path d="M15.6,13.8c-1.2-1.1-2.9-2.8-3.8-3.9c1.5-2.4,1.3-5.7-0.9-7.9c-2.5-2.5-6.5-2.5-9,0s-2.5,6.5,0,9c2.2,2.3,5.7,2.5,8.2,0.7
			c1.1,1.1,2.9,2.9,3.8,3.8C14.8,16.5,16.7,14.9,15.6,13.8z M9.5,9.7c-1.8,1.8-4.6,1.8-6.4,0C1.3,8,1.3,5.1,3.1,3.4
			c1.8-1.8,4.6-1.8,6.4-0.1C11.3,5.1,11.3,7.9,9.5,9.7z M8.6,6H6.9V4.3c0-0.4-0.3-0.6-0.6-0.6S5.8,4,5.8,4.3v1.8H4
			C3.7,6,3.5,6.3,3.5,6.6S3.7,7.1,4,7.1h1.8v1.8C5.8,9.2,6,9.4,6.3,9.4s0.6-0.2,0.6-0.6V7.1h1.8c0.3,0,0.5-0.3,0.5-0.6S8.9,6,8.6,6z
			"/>
	</g>
</g>
</svg>
