<?xml version="1.0" encoding="utf-8"?>
<!-- Generator: Adobe Illustrator 21.0.0, SVG Export Plug-In . SVG Version: 6.00 Build 0)  -->
<svg version="1.1" id="Layer_1" xmlns="http://www.w3.org/2000/svg" xmlns:xlink="http://www.w3.org/1999/xlink" x="0px" y="0px"
	 width="16px" height="16px" viewBox="0 0 16 16" style="enable-background:new 0 0 16 16;" xml:space="preserve">
<path d="M12.1,10.7c-0.6,0-1.1,0.2-1.5,0.5l-4-2.6c0-0.2,0-0.3,0-0.5c0-0.2,0-0.3,0-0.5l4-2.6c0.4,0.3,0.9,0.5,1.5,0.5
	c1.5,0,2.7-1.2,2.7-2.7c0-1.5-1.2-2.7-2.7-2.7S9.4,1.2,9.4,2.7c0,0.2,0,0.3,0,0.5l-4,2.6C5,5.5,4.5,5.3,3.9,5.3
	C2.4,5.3,1.2,6.5,1.2,8c0,1.5,1.2,2.7,2.7,2.7c0.6,0,1.1-0.2,1.5-0.5l4,2.6c0,0.2,0,0.3,0,0.5c0,1.5,1.2,2.7,2.7,2.7
	s2.7-1.2,2.7-2.7C14.8,11.9,13.6,10.7,12.1,10.7z"/>
</svg>
