<?xml version="1.0" encoding="utf-8"?>
<!-- Generator: Adobe Illustrator 21.0.0, SVG Export Plug-In . SVG Version: 6.00 Build 0)  -->
<svg version="1.1" id="Layer_1" xmlns="http://www.w3.org/2000/svg" xmlns:xlink="http://www.w3.org/1999/xlink" x="0px" y="0px"
	 width="16px" height="16px" viewBox="0 0 16 16" style="enable-background:new 0 0 16 16;" xml:space="preserve">
<style type="text/css">
	.st0{fill:#231F20;}
</style>
<g>
	<g>
		<path class="st0" d="M14.5,1.8L14.4,0c-3.6,0.2-5.6,1.8-6.7,3.2C7.2,3.8,6.9,4.5,6.7,5h2C9.4,3.7,11.1,2,14.5,1.8z M9.8,5.4H5
			c-1.9,0-3.5,1.3-3.5,3v1.9h0.9c0.1,0.1,0.1,0.3,0.2,0.4c0.3,0.3,0.6,0.5,1,0.5h7.3c0.4,0,0.8-0.2,1-0.5c0.1-0.1,0.2-0.2,0.2-0.4
			h1.1V8.4C13.3,6.7,11.7,5.4,9.8,5.4z M12.8,9.8H2V8.9h10.7V9.8z M3.6,13.5c0,0.4,0.3,0.7,0.7,0.7c0.4,0,0.7-0.3,0.7-0.7
			s-0.7-1.3-0.7-1.3S3.6,13.1,3.6,13.5z M7.1,12.2c0,0-0.7,0.9-0.7,1.3s0.3,0.7,0.7,0.7s0.7-0.3,0.7-0.7S7.1,12.2,7.1,12.2z M5,15.3
			C5,15.7,5.3,16,5.7,16s0.7-0.3,0.7-0.7C6.5,15,5.7,14,5.7,14S5,15,5,15.3z M7.7,15.3c0,0.4,0.3,0.7,0.7,0.7s0.7-0.3,0.7-0.7
			C9.2,15,8.5,14,8.5,14S7.7,15,7.7,15.3z M9.4,13.5c0,0.4,0.3,0.7,0.7,0.7c0.4,0,0.7-0.3,0.7-0.7s-0.7-1.3-0.7-1.3
			S9.4,13.1,9.4,13.5z"/>
	</g>
</g>
</svg>
